<?xml version="1.0" encoding="UTF-8"?>
<svg id="Layer_1" xmlns="http://www.w3.org/2000/svg" version="1.1" viewBox="0 0 24 24">
  <!-- Generator: Adobe Illustrator 29.3.1, SVG Export Plug-In . SVG Version: 2.1.0 Build 151)  -->
  <path d="M9.99,5.45c.05.06-.29,1.33-.29,1.6,0,.1.02.18.11.25l1.29.92c.33-.02,1.42-.77,1.66-.63l.91,1.62c.03.11-.04.18-.11.25-.25.25-1.02.6-1.21.86-.17.23.13,1.36.14,1.71l1.57.55c.11.33-.25,1.99-.54,2.05l-1.73-.26c-.25.46-.55.91-.94,1.25l.68,1.74c-.06.12-1.43.92-1.61.97-.12.03-.15.05-.25-.04-.23-.18-.84-1.35-1.06-1.36l-1.47.25-.64,1.68c-.09.08-1.77-.35-1.95-.49s.17-1.26.18-1.54c0-.53-.25-.41-.57-.65-.15-.11-.66-.59-.76-.6l-1.64.71-1-1.7c-.04-.26,1.37-.97,1.4-1.25.02-.15-.1-.3-.13-.44-.06-.36-.08-.73-.12-1.09l-1.64-.71.47-1.93,1.82.22.96-1.33-.59-1.65c.48-.42,1.03-.8,1.64-1.01.3,0,.96,1.4,1.19,1.41l1.62-.24.61-1.61c.71-.03,1.38.25,2.02.51h0ZM9.18,10.04c-2.4-2.46-6.15,1.01-3.94,3.62,2.35,2.76,6.44-1.05,3.94-3.62h0Z"/>
  <path d="M19.12,5.6l.16,1.3.13.15,1.16.46,1.01-.83c.19,0,1.08.9,1.1,1.09l-.81,1.17.41,1.05,1.41.16c.05.57.09,1.08,0,1.64-.35.02-.84,0-1.18.07s-.48.95-.66,1.24l.82,1.08c-.18.24-.91,1.15-1.2,1.08-.27-.11-.64-.62-.86-.72-.32-.15-.9.32-1.25.39l-.19,1.42h-1.52c-.16-.01-.03-1.29-.25-1.45-.06-.04-.47-.13-.61-.18s-.25-.18-.37-.21c-.44-.09-.97.81-1.26.78-.21-.02-.84-.84-1.08-1v-.14c.14-.22.85-.9.81-1.09-.04-.22-.45-.78-.48-1.09l-1.37-.22c-.11-.15-.09-1.43.02-1.51l1.38-.22.44-1.18c-.08-.26-.84-.91-.8-1.11.03-.13.83-.97.97-1.03.09-.04.12-.04.21,0,.21.1.62.61.86.72s.99-.34,1.29-.44l.15-1.3,1.55-.07h0ZM18.26,8.97c-2.97.22-2.12,4.97.85,3.99,2.19-.72,1.58-4.17-.85-3.99h0Z"/>
</svg>