<?xml version="1.0" standalone="no"?>
<!DOCTYPE svg PUBLIC "-//W3C//DTD SVG 20010904//EN"
 "http://www.w3.org/TR/2001/REC-SVG-20010904/DTD/svg10.dtd">
<svg version="1.0" xmlns="http://www.w3.org/2000/svg"
 width="500.000000pt" height="500.000000pt" viewBox="0 0 500.000000 500.000000"
 preserveAspectRatio="xMidYMid meet">

<g transform="translate(0.000000,500.000000) scale(0.100000,-0.100000)"
fill="#000000" stroke="none">
<path d="M3690 4519 c0 -6 -4 -7 -10 -4 -5 3 -10 2 -10 -4 0 -5 -21 -19 -47
-32 -27 -12 -51 -27 -55 -33 -5 -7 -8 -7 -8 -1 0 6 -7 1 -15 -9 -8 -11 -15
-17 -15 -13 0 4 -9 -2 -20 -13 -12 -12 -25 -18 -30 -15 -6 4 -10 1 -10 -5 0
-6 -4 -8 -10 -5 -5 3 -10 2 -10 -3 0 -5 -19 -17 -42 -28 -24 -10 -46 -23 -50
-29 -4 -5 -8 -6 -8 -2 0 4 -10 -1 -22 -12 -11 -11 -24 -18 -28 -16 -4 3 -18
-6 -31 -19 -21 -20 -78 -54 -226 -132 -23 -12 -39 -25 -35 -29 4 -4 0 -6 -8
-3 -8 2 -25 -6 -39 -18 -13 -12 -33 -26 -45 -32 -95 -42 -138 -66 -164 -90 -7
-7 -17 -10 -22 -7 -4 3 -11 -2 -14 -11 -3 -8 -10 -12 -16 -9 -5 3 -10 1 -10
-4 0 -11 -96 -65 -115 -66 -5 0 -12 -2 -15 -5 -14 -15 -138 -90 -148 -90 -7 0
-12 -5 -12 -11 0 -5 -4 -7 -10 -4 -5 3 -10 1 -10 -5 0 -6 -4 -8 -10 -5 -5 3
-10 1 -10 -4 0 -6 -5 -11 -11 -11 -6 0 -29 -12 -52 -27 -23 -16 -48 -29 -55
-31 -7 -1 -23 -11 -34 -22 -12 -11 -25 -17 -30 -14 -4 3 -8 1 -8 -3 0 -11 -99
-69 -111 -65 -5 1 -9 -2 -9 -8 0 -5 -4 -10 -10 -10 -5 0 -41 -20 -80 -45 -39
-25 -77 -45 -85 -45 -8 0 -15 -5 -15 -11 0 -5 -5 -7 -10 -4 -5 3 -10 2 -10 -3
0 -9 -59 -49 -70 -48 -3 0 -22 -10 -42 -22 -21 -13 -38 -20 -38 -15 0 4 -4 3
-8 -2 -9 -15 -72 -58 -72 -51 0 3 -9 -3 -20 -14 -12 -12 -25 -18 -29 -15 -5 2
-12 -2 -15 -11 -3 -8 -10 -12 -16 -9 -5 3 -10 2 -10 -3 0 -9 -78 -46 -92 -43
-5 0 -8 -4 -8 -10 0 -5 -4 -7 -10 -4 -5 3 -10 2 -10 -4 0 -10 -53 -42 -66 -41
-3 1 -12 -7 -20 -17 -7 -10 -14 -14 -14 -10 0 4 -10 -1 -22 -12 -11 -11 -25
-18 -30 -15 -4 3 -8 1 -8 -4 0 -5 -24 -19 -52 -33 -29 -13 -59 -30 -66 -37 -8
-7 -17 -10 -22 -7 -4 3 -11 -2 -14 -11 -3 -8 -10 -12 -16 -9 -5 3 -10 2 -10
-2 0 -10 -62 -49 -72 -45 -5 1 -8 -2 -8 -7 0 -5 -31 -25 -70 -45 -38 -19 -70
-33 -70 -31 0 2 -12 -7 -26 -20 -15 -14 -30 -22 -34 -20 -4 3 -10 -2 -14 -10
-3 -8 -10 -15 -17 -15 -6 0 -24 -9 -40 -21 -16 -11 -29 -17 -29 -13 0 4 -6 1
-13 -8 -6 -9 -21 -18 -32 -20 -11 -2 -22 -5 -25 -8 -13 -14 -171 -110 -222
-135 -86 -42 -92 -52 -93 -150 l-1 -84 -43 -38 c-39 -34 -44 -44 -49 -91 -2
-29 -9 -55 -13 -58 -5 -3 -9 -39 -9 -79 0 -73 1 -75 30 -90 37 -19 37 -18 5
-255 -22 -154 -26 -224 -26 -417 0 -197 3 -237 17 -265 19 -37 129 -148 194
-196 250 -185 634 -365 857 -404 71 -12 72 -12 131 19 33 18 63 29 66 26 3 -4
6 -2 6 4 0 5 21 20 48 33 26 13 58 31 72 40 14 10 41 27 60 38 262 149 270
154 270 179 0 18 2 17 67 -17 65 -35 83 -36 138 -11 65 29 165 156 165 208 0
29 30 67 43 54 11 -11 77 21 197 96 36 23 82 49 102 60 37 18 150 83 390 225
72 43 133 78 136 78 3 0 58 32 122 70 64 39 121 70 127 70 6 0 13 4 15 8 2 5
24 20 49 33 25 13 92 51 148 84 55 33 135 80 178 105 64 37 86 57 99 88 1 2
31 -12 67 -29 62 -31 68 -32 108 -20 73 22 189 154 189 216 0 27 31 66 44 56
8 -7 28 -1 61 18 28 16 100 56 160 90 170 97 294 172 301 183 6 9 -7 23 -30
31 -5 2 -8 276 -7 631 1 421 -2 632 -9 641 -6 7 -9 22 -8 35 3 18 -16 33 -112
92 -63 39 -133 79 -155 89 -22 11 -76 41 -120 69 -44 27 -109 65 -145 84 -36
19 -114 64 -173 100 -60 36 -112 66 -117 66 -4 0 -44 24 -88 53 -44 28 -95 60
-112 70 -28 15 -32 21 -27 46 4 20 2 31 -8 35 -8 3 -15 1 -15 -5z m-725 -723
c0 -15 -4 -21 -9 -16 -5 5 -6 16 -3 24 9 22 12 20 12 -8z m842 -158 c-3 -7 -5
-2 -5 12 0 14 2 19 5 13 2 -7 2 -19 0 -25z m393 -182 c0 -2 -7 -7 -16 -10 -8
-3 -12 -2 -9 4 6 10 25 14 25 6z m-810 -21 c0 -2 -10 -9 -22 -15 -22 -11 -22
-10 -4 4 21 17 26 19 26 11z m675 -25 c-3 -5 -12 -10 -18 -10 -7 0 -6 4 3 10
19 12 23 12 15 0z m-795 -45 c0 -2 -10 -9 -22 -15 -22 -11 -22 -10 -4 4 21 17
26 19 26 11z m9 -409 c-2 -2 -15 -9 -29 -15 -24 -11 -24 -11 -6 3 16 13 49 24
35 12z m-329 -190 c0 -2 -7 -7 -16 -10 -8 -3 -12 -2 -9 4 6 10 25 14 25 6z
m-220 -160 c0 -2 -7 -7 -16 -10 -8 -3 -12 -2 -9 4 6 10 25 14 25 6z m-2335
-266 c21 -22 37 -40 34 -40 -3 0 -23 18 -44 40 -21 22 -37 40 -34 40 3 0 23
-18 44 -40z m-124 -141 c-5 -35 -14 -80 -19 -99 l-8 -35 -8 50 c-20 145 -21
141 10 172 l29 28 3 -26 c2 -15 -1 -55 -7 -90z m319 -15 c0 -3 -13 4 -30 16
-16 12 -30 24 -30 26 0 3 14 -4 30 -16 17 -12 30 -24 30 -26z m3265 -222 c-22
-5 -29 3 -21 25 7 17 8 17 22 -2 13 -18 13 -20 -1 -23z m-2498 -118 c-3 -3
-12 -4 -19 -1 -8 3 -5 6 6 6 11 1 17 -2 13 -5z m50 0 c-3 -3 -12 -4 -19 -1 -8
3 -5 6 6 6 11 1 17 -2 13 -5z m-39 -372 c17 -3 22 2 22 18 0 24 18 23 34 -3
13 -21 4 -29 -33 -31 -37 -2 -50 -14 -31 -27 11 -8 12 -12 3 -16 -7 -2 -13
-13 -13 -22 0 -14 6 -17 24 -14 13 3 27 0 30 -6 4 -6 2 -11 -5 -11 -8 0 -8 -4
1 -15 10 -12 9 -15 -7 -15 -10 0 -29 7 -41 16 -20 14 -22 23 -21 97 1 49 4 72
8 57 4 -15 15 -26 29 -28z m-1090 -89 c-9 -11 -1 -24 40 -63 29 -28 46 -50 38
-50 -19 0 -68 -59 -60 -72 4 -7 2 -8 -4 -4 -16 10 -31 -25 -25 -59 3 -23 2
-27 -6 -15 -6 9 -11 75 -11 164 0 148 0 149 20 131 15 -14 17 -21 8 -32z m50
-295 c14 -14 16 -58 4 -58 -16 0 -54 48 -47 59 8 14 28 14 43 -1z m328 -43 c8
-13 14 -32 12 -42 -5 -27 -40 -22 -57 8 -28 50 13 83 45 34z m447 -160 c39
-14 104 -32 146 -39 l76 -13 -1 -36 c-1 -20 -9 -48 -18 -62 -21 -33 -73 -33
-175 -2 l-74 22 -13 60 c-7 33 -15 68 -19 78 -9 22 -6 22 78 -8z m-446 -56
c94 -55 123 -77 123 -91 0 -13 -170 77 -210 111 -56 48 -12 38 87 -20z m1237
6 c4 -10 -1 -15 -14 -15 -20 0 -26 11 -13 23 10 11 20 8 27 -8z m-721 -208
c12 -4 17 -17 17 -42 0 -30 -3 -35 -24 -35 -27 0 -66 42 -66 69 0 28 21 43 39
27 9 -7 24 -16 34 -19z"/>
</g>
</svg>
