<?xml version="1.0" encoding="UTF-8"?>
<svg id="Layer_1" data-name="Layer 1" xmlns="http://www.w3.org/2000/svg" viewBox="0 0 375.6 500">
  <path d="M231.13,5l-30.64-5h-25.39l-2.36,1.02C71.1,8.19-4.96,98.5.25,199.75c5.18,100.69,96.81,223.77,169.45,289.54,4.38,3.97,8.94,8.12,14.19,10.72h7.81c4.91-2.39,9.12-6.08,13.21-9.74,73.04-65.39,165.07-189.97,170.42-290.51,4.83-90.66-56.17-173.63-144.2-194.74ZM286.46,221.23c-26.79,79.02-132.9,95.6-182.47,28.1-49.23-67.03-3.84-161.73,78.72-166.04,73-3.81,127.25,68.64,103.75,137.93Z"/>
  <path d="M254.26,147.12c-1.03-7.4-1.71-21.49-6.94-27.14-7.09-7.65-32.88-10.68-43.22-11.46-14.23-1.07-29.48-.95-43.67.63-8.26.92-25.97,3.6-31.71,9.77-5.23,5.63-5.7,20.76-6.83,28.2-3.89.85-6.84,3.27-7.2,7.41-.33,3.82-.51,14.63.09,18.16.46,2.73,2.91,4.96,5.29,6.09.05.84-.33,1.62-.35,2.45-.35,13.56-.03,27.32.34,40.84.2,7.24-.04,15.75,1.01,22.86.25,1.72,1.54,4.23,3.15,5.02,2.68,1.31,6.96-.76,9.65.72v11.94c0,.26,1.68,2.93,2.05,3.29,1.14,1.16,4.22,2.63,5.81,2.83,1.16.15,2.57-.11,3.77,0,1.82-.72,3.26-.97,4.86-2.21.92-.71,2.99-3.12,2.99-4.23v-12.09h72.59v10.84c0,.16.45,1.99.55,2.27,1.14,3.09,4.44,4.47,7.3,5.42h4.09c2.42-.92,5.04-1.68,6.55-3.98.42-.63,1.31-2.75,1.31-3.4v-11.15c3.14.47,9.55.77,10.3-3.37,1.21-6.68-1-15.92.4-22.84-.08-15.08.19-30.17-.34-45.2,3.03-1.13,5.39-3.62,5.68-6.95.35-3.93.48-14.72-.15-18.41-.61-3.55-3.98-5.8-7.36-6.31ZM150.83,122.66h73.53v11.31h-73.53v-11.31ZM153.48,237.61c-14.01,1.75-16.06-18.86-3.35-20.63,14.57-2.03,16.33,19,3.35,20.63ZM225.44,237.61c-13.97,1.75-16.01-18.86-3.35-20.63,14.54-2.02,16.39,18.99,3.35,20.63ZM237.25,192.09h-99.3v-52.15h99.3v52.15Z"/>
</svg>