<?xml version="1.0" encoding="UTF-8"?>
<svg id="Layer_1" data-name="Layer 1" xmlns="http://www.w3.org/2000/svg" viewBox="0 0 387.31 500">
  <path d="M26.02,89.24l332.77-.25c39.34,7.05,37.11,59.15-2.02,64H32.8c-40.2-3.36-44.59-53.75-6.78-63.75Z"/>
  <path d="M29.06,348.28l327.7-.26c38.83,3.68,41.16,55.15,4.02,62.99-107.65-1.23-215.42,1.64-323.05-.06-2.39-.04-4.45.88-6.68.79-38.46-1.56-42.7-58.6-2-63.45Z"/>
  <path d="M26.06,219.28l334.71-.27c29.84,4.14,36.55,46.09,9.52,59.5-11.69,5.8-45.06,3.45-59.55,3.53-83.24.47-167.67-.27-250.92,0-15.69.05-37.44,2.62-49.55-8.53-19.39-17.84-9.35-49.83,15.79-54.23Z"/>
</svg>