<?xml version="1.0" encoding="UTF-8"?>
<svg id="Layer_1" data-name="Layer 1" xmlns="http://www.w3.org/2000/svg" viewBox="0 0 477.49 500">
  <path d="M197.9,108.3c1,1.32-5.95,27.06-5.84,32.61.04,2.12.5,3.7,2.14,5.12l26.27,18.78c6.76-.33,28.92-15.72,33.77-12.85l18.42,32.98c.52,2.17-.9,3.68-2.32,5.08-5.08,5.03-20.82,12.2-24.64,17.41-3.46,4.71,2.66,27.55,2.86,34.71l31.89,11.22c2.15,6.63-4.99,40.49-10.88,41.58l-35.12-5.23c-5.11,9.3-11.09,18.45-19.16,25.4l13.91,35.31c-1.2,2.47-28.96,18.71-32.71,19.66-2.43.61-2.96.96-5.16-.73-4.73-3.64-17-27.45-21.55-27.62l-29.89,4.99-13.09,34.04c-1.8,1.58-35.92-7.03-39.63-9.93s3.5-25.69,3.56-31.33c.11-10.86-5.05-8.32-11.58-13.17-3.05-2.26-13.41-12.05-15.41-12.25l-33.33,14.38-20.4-34.57c-.87-5.3,27.84-19.69,28.44-25.48.32-3.06-2.12-6.09-2.57-9.03-1.14-7.34-1.53-14.82-2.47-22.18L0,222.84l9.51-39.13,36.94,4.41,19.56-27.07-12.08-33.58c9.8-8.62,20.9-16.31,33.35-20.44,6.01-.08,19.49,28.49,24.23,28.65l32.83-4.94,12.42-32.78c14.38-.56,28.06,5.14,41.13,10.34ZM181.47,201.52c-48.77-49.99-124.96,20.54-79.99,73.46,47.68,56.12,130.86-21.32,79.99-73.46Z"/>
  <path d="M383.41,111.26l3.33,26.39,2.69,3.11,23.56,9.34,20.6-16.77c3.88.02,21.94,18.38,22.27,22.25l-16.52,23.79,8.29,21.38,28.74,3.16c1.1,11.51,1.82,21.85,0,33.37-7.14.44-17.07.18-23.91,1.47s-9.76,19.34-13.5,25.13l16.72,21.99c-3.69,4.97-18.55,23.45-24.31,21.91-5.41-2.22-13.09-12.66-17.4-14.67-6.41-2.99-18.38,6.49-25.42,7.9l-3.77,28.87-30.86.29c-3.35-.58-.69-26.46-5.17-29.84-1.18-.89-9.56-2.55-12.39-3.56s-5.07-3.66-7.55-4.18c-9-1.88-19.67,16.4-25.69,15.81-4.33-.42-17.17-17.14-21.92-20.39l.03-2.85c2.72-4.57,17.21-18.34,16.5-22.12-.85-4.52-9.21-15.84-9.84-22.21l-27.75-4.49c-2.19-3.07-1.88-28.97.34-30.77l28.11-4.52,8.86-23.96c-1.65-5.25-17.14-18.52-16.23-22.61.57-2.56,16.92-19.65,19.69-20.94,1.91-.89,2.39-.89,4.29,0,4.36,2.04,12.54,12.32,17.5,14.54s20.19-6.99,26.16-8.92l2.97-26.4,31.55-1.49ZM365.88,179.67c-60.35,4.4-42.99,101.04,17.28,81.12,44.43-14.68,32.16-84.73-17.28-81.12Z"/>
</svg>