<?xml version="1.0" encoding="UTF-8"?>
<svg id="Layer_1" data-name="Layer 1" xmlns="http://www.w3.org/2000/svg" viewBox="0 0 23.19 23.19">
  <path d="M11.6,0C5.2,0,0,5.2,0,11.6s5.2,11.6,11.6,11.6,11.6-5.2,11.6-11.6S17.99,0,11.6,0ZM22.4,11.6c0,5.96-4.84,10.8-10.8,10.8S.8,17.55.8,11.6,5.64.8,11.6.8s10.8,4.84,10.8,10.8Z"/>
  <g>
    <path d="M4.82,8.73c.11-.27.31-.38.59-.35.1,0,.2,0,.32,0v2.75c-.18,0-.36.01-.54,0-.19-.02-.29-.17-.37-.32,0-.69,0-1.38,0-2.07Z"/>
    <path d="M18.37,10.8c-.04.06-.07.15-.13.19-.09.06-.19.12-.3.14-.16.02-.32,0-.48,0v-2.75c.18,0,.35-.01.52,0,.2.02.32.17.39.34v2.07Z"/>
    <path d="M6.99,16.66c-.32-.02-.57-.14-.75-.38-.14-.19-.18-.4-.18-.62,0-1.8,0-3.6,0-5.4,0-.91,0-1.81,0-2.72,0-.69.19-1.31.63-1.84.51-.61,1.17-.96,1.96-.99.83-.03,1.66,0,2.49,0,1.05,0,2.09,0,3.14,0,.48,0,.94.09,1.36.32.48.26.85.63,1.12,1.11.24.44.34.9.34,1.4,0,2.68,0,5.36,0,8.05,0,.6-.32,1.05-.93,1.09,0,.28,0,.56,0,.84,0,.12-.02.25-.05.37-.09.33-.42.59-.76.61-.38.01-.75.02-1.13,0-.41-.02-.77-.38-.8-.79-.02-.29-.01-.58-.01-.87,0-.05,0-.1,0-.16h-3.69c0,.28,0,.57,0,.85,0,.13-.02.26-.06.38-.1.32-.42.58-.76.59-.38.01-.75.02-1.13,0-.41-.02-.78-.39-.8-.81-.01-.29,0-.59,0-.88,0-.04,0-.08,0-.14ZM16.18,7.47H6.98v5.51h9.2v-5.51ZM9.75,5.62v.92h3.66v-.92h-3.66ZM6.98,14.84c.02.52.45.92.95.9.5-.02.9-.45.88-.94-.02-.52-.45-.92-.95-.89-.51.03-.91.45-.88.94ZM15.26,15.74c.5,0,.92-.41.92-.92,0-.5-.42-.92-.92-.92-.51,0-.92.42-.92.92,0,.5.42.92.92.92Z"/>
  </g>
</svg>