<?xml version="1.0" encoding="UTF-8"?>
<svg id="Layer_1" xmlns="http://www.w3.org/2000/svg" version="1.1" viewBox="0 0 24 24">
  <!-- Generator: Adobe Illustrator 29.3.1, SVG Export Plug-In . SVG Version: 2.1.0 Build 151)  -->
  <path d="M2.53,2.67h19.27c2.28.39,2.15,3.41-.12,3.69H2.92c-2.33-.19-2.58-3.11-.39-3.69Z"/>
  <path d="M2.7,17.67l18.98-.02c2.25.21,2.38,3.19.23,3.65-6.23-.07-12.47.09-18.71,0-.14,0-.26.05-.39.05-2.23-.09-2.47-3.39-.12-3.67h0Z"/>
  <path d="M2.53,10.2l19.38-.02c1.73.24,2.12,2.67.55,3.45-.68.34-2.61.2-3.45.2-4.82.03-9.71-.02-14.53,0-.91,0-2.17.15-2.87-.49-1.12-1.03-.54-2.89.91-3.14h0Z"/>
</svg>