<?xml version="1.0" encoding="UTF-8"?>
<svg id="Layer_1" xmlns="http://www.w3.org/2000/svg" version="1.1" viewBox="0 0 24 24">
  <!-- Generator: Adobe Illustrator 29.3.1, SVG Export Plug-In . SVG Version: 2.1.0 Build 151)  -->
  <path d="M13.97.35l-1.46-.24h-1.21l-.11.05C6.37.5,2.75,4.8,3,9.61c.25,4.79,4.6,10.64,8.06,13.77.21.19.43.39.67.51h.37c.23-.11.43-.29.63-.46,3.47-3.11,7.85-9.03,8.1-13.81.23-4.31-2.67-8.26-6.86-9.26h0ZM16.61,10.63c-1.27,3.76-6.32,4.55-8.68,1.34-2.34-3.19-.18-7.69,3.74-7.89,3.47-.18,6.05,3.26,4.93,6.56h0Z"/>
  <path d="M15.07,7.11c-.05-.35-.08-1.02-.33-1.29-.34-.36-1.56-.51-2.05-.54-.68-.05-1.4-.05-2.08.03-.39.04-1.23.17-1.51.46-.25.27-.27.99-.32,1.34-.18.04-.33.16-.34.35-.02.18-.02.7,0,.86.02.13.14.24.25.29,0,.04-.02.08-.02.12-.02.64,0,1.3.02,1.94,0,.34,0,.75.05,1.09.01.08.07.2.15.24.13.06.33-.04.46.03v.57s.08.14.1.16c.05.06.2.13.28.13.06,0,.12,0,.18,0,.09-.03.16-.05.23-.11.04-.03.14-.15.14-.2v-.57h3.45v.52s.02.09.03.11c.05.15.21.21.35.26h.19c.12-.04.24-.08.31-.19.02-.03.06-.13.06-.16v-.53c.15.02.45.04.49-.16.06-.32-.05-.76.02-1.09,0-.72,0-1.43-.02-2.15.14-.05.26-.17.27-.33.02-.19.02-.7,0-.88-.03-.17-.19-.28-.35-.3h0ZM10.16,5.95h3.5v.54h-3.5v-.54ZM10.28,11.41c-.67.08-.76-.9-.16-.98.69-.1.78.9.16.98ZM13.7,11.41c-.66.08-.76-.9-.16-.98.69-.1.78.9.16.98ZM14.27,9.25h-4.72v-2.48h4.72v2.48Z"/>
</svg>