<?xml version="1.0" standalone="no"?>
<!DOCTYPE svg PUBLIC "-//W3C//DTD SVG 20010904//EN"
 "http://www.w3.org/TR/2001/REC-SVG-20010904/DTD/svg10.dtd">
<svg version="1.0" xmlns="http://www.w3.org/2000/svg"
 width="500.000000pt" height="500.000000pt" viewBox="0 0 500.000000 500.000000"
 preserveAspectRatio="xMidYMid meet">

<g transform="translate(0.000000,500.000000) scale(0.100000,-0.100000)"
fill="#000000" stroke="none">
<path d="M756 4085 c-76 -31 -137 -91 -171 -168 -24 -53 -27 -69 -23 -136 10
-161 108 -271 269 -301 76 -15 3292 -13 3344 1 71 20 119 47 161 91 59 61 86
120 92 200 9 127 -55 238 -172 298 l-69 35 -1686 2 -1686 3 -59 -25z"/>
<path d="M782 2800 c-38 -9 -105 -51 -140 -89 -14 -14 -38 -54 -55 -89 -27
-57 -29 -70 -25 -140 6 -94 31 -149 100 -214 95 -91 -72 -83 1833 -83 1906 0
1737 -8 1833 84 78 75 97 118 97 226 0 79 -4 97 -28 142 -33 63 -83 115 -140
145 l-42 23 -1700 2 c-935 0 -1715 -2 -1733 -7z"/>
<path d="M793 1505 c-93 -25 -158 -78 -206 -169 -32 -60 -31 -201 2 -268 39
-81 111 -141 206 -172 29 -10 3375 -7 3410 3 64 18 133 71 170 129 46 75 59
122 52 205 -10 115 -89 221 -199 265 -40 16 -159 17 -1713 19 -1413 2 -1678 0
-1722 -12z"/>
</g>
</svg>
