<?xml version="1.0" standalone="no"?>
<!DOCTYPE svg PUBLIC "-//W3C//DTD SVG 20010904//EN"
 "http://www.w3.org/TR/2001/REC-SVG-20010904/DTD/svg10.dtd">
<svg version="1.0" xmlns="http://www.w3.org/2000/svg"
 width="500.000000pt" height="500.000000pt" viewBox="0 0 500.000000 500.000000"
 preserveAspectRatio="xMidYMid meet">

<g transform="translate(0.000000,500.000000) scale(0.100000,-0.100000)"
fill="#000000" stroke="none">
<path d="M1893 3358 l-41 -113 -88 -11 c-49 -6 -103 -14 -119 -18 -29 -6 -33
-3 -80 65 -28 39 -62 85 -76 102 l-25 30 -49 -22 c-56 -25 -182 -108 -188
-125 -3 -6 15 -56 39 -111 24 -55 44 -107 44 -115 0 -9 -12 -27 -26 -41 -14
-13 -46 -55 -71 -92 -32 -49 -50 -66 -62 -63 -18 6 -200 36 -216 36 -22 0 -91
-254 -76 -278 3 -6 18 -13 32 -17 14 -3 64 -21 110 -40 l84 -33 7 -74 c5 -40
12 -86 18 -102 5 -16 10 -35 10 -41 0 -10 -63 -61 -198 -160 -6 -5 46 -108 90
-177 l49 -77 111 50 c60 27 116 49 122 49 7 0 23 -12 37 -26 13 -14 52 -44 87
-66 70 -46 70 -45 47 -165 -23 -119 -21 -128 23 -146 53 -21 140 -44 192 -51
l45 -7 34 88 c65 168 46 148 147 161 49 6 98 14 109 17 17 5 33 -11 94 -94 40
-56 77 -101 82 -101 16 0 109 49 181 96 l67 43 -50 110 c-27 61 -49 116 -49
121 0 6 14 25 30 43 17 18 47 58 68 90 34 54 39 58 67 52 59 -13 219 -34 223
-30 14 14 54 160 59 215 l5 65 -111 40 c-87 30 -113 44 -116 60 -2 11 -9 62
-15 114 -14 108 -22 93 95 176 44 31 83 62 87 68 13 23 -114 247 -140 247 -8
0 -56 -20 -109 -45 -52 -25 -99 -45 -104 -45 -18 0 -199 145 -199 159 1 9 9
63 19 121 16 96 16 106 2 117 -24 17 -191 63 -232 63 l-35 0 -41 -112z m99
-526 c290 -143 289 -532 -2 -675 -59 -29 -73 -32 -155 -31 -111 1 -181 29
-255 103 -88 88 -123 191 -108 319 16 146 132 275 281 313 18 4 64 7 104 5 57
-2 86 -10 135 -34z"/>
<path d="M3294 3372 c-7 -4 -15 -43 -19 -88 -4 -44 -10 -85 -13 -91 -7 -10
-149 -73 -166 -73 -5 0 -39 25 -77 55 -37 30 -72 55 -78 55 -12 0 -126 -112
-140 -138 -9 -17 -2 -31 49 -92 l59 -73 -21 -40 c-11 -22 -26 -61 -34 -87
l-14 -46 -92 -13 c-51 -6 -95 -14 -98 -17 -9 -10 -11 -189 -2 -202 6 -8 47
-19 102 -25 l93 -12 14 -40 c11 -34 37 -95 49 -116 2 -4 -24 -41 -57 -83 l-61
-76 36 -40 c52 -58 112 -110 125 -110 7 0 42 25 77 55 36 30 71 55 77 55 7 0
26 -7 42 -16 17 -9 50 -22 75 -28 49 -13 57 -28 59 -107 1 -26 4 -61 7 -78 l7
-31 108 0 c125 0 111 -13 126 123 l8 78 60 26 c98 41 97 41 170 -21 36 -31 70
-56 75 -56 12 0 116 97 140 130 l20 29 -60 72 c-34 40 -59 77 -56 83 3 6 17
40 31 76 15 36 34 70 42 77 8 6 52 14 98 18 l83 7 7 58 c4 32 4 83 0 113 l-7
55 -62 7 c-135 13 -132 12 -146 58 -7 23 -21 59 -31 79 l-19 37 61 76 c58 71
60 77 46 98 -20 31 -104 114 -127 127 -20 11 -43 -4 -122 -79 l-38 -35 -37 21
c-21 11 -56 26 -78 33 -22 7 -45 17 -51 21 -6 5 -14 41 -18 81 -12 126 -4 118
-115 118 -53 0 -101 -4 -107 -8z m236 -497 c55 -28 101 -75 131 -135 48 -92
23 -238 -54 -318 -56 -58 -121 -85 -207 -86 -65 0 -83 5 -129 29 -160 88 -203
294 -90 436 35 45 105 89 158 100 55 11 140 0 191 -26z"/>
</g>
</svg>
