<?xml version="1.0" standalone="no"?>
<!DOCTYPE svg PUBLIC "-//W3C//DTD SVG 20010904//EN"
 "http://www.w3.org/TR/2001/REC-SVG-20010904/DTD/svg10.dtd">
<svg version="1.0" xmlns="http://www.w3.org/2000/svg"
 width="500.000000pt" height="500.000000pt" viewBox="0 0 500.000000 500.000000"
 preserveAspectRatio="xMidYMid meet">

<g transform="translate(0.000000,500.000000) scale(0.100000,-0.100000)"
fill="#000000" stroke="none">
<path d="M2298 4173 c-32 -2 -58 -8 -58 -13 0 -6 -11 -10 -25 -10 -14 0 -25
-4 -25 -10 0 -5 -13 -10 -30 -10 -16 0 -30 -4 -30 -10 0 -5 -11 -10 -25 -10
-14 0 -25 -4 -25 -9 0 -5 -16 -12 -35 -15 -19 -4 -35 -11 -35 -16 0 -6 -8 -10
-18 -10 -10 0 -24 -9 -32 -20 -8 -11 -18 -20 -23 -20 -5 0 -15 -7 -23 -15 -9
-8 -23 -15 -33 -15 -9 0 -23 -10 -31 -21 -8 -12 -21 -27 -28 -33 -43 -37 -82
-78 -82 -87 0 -6 -13 -24 -30 -39 -16 -15 -30 -35 -30 -43 0 -8 -7 -17 -15
-21 -8 -3 -15 -15 -15 -26 0 -11 -4 -20 -10 -20 -5 0 -10 -9 -10 -20 0 -11 -4
-20 -10 -20 -5 0 -10 -7 -10 -15 0 -8 -4 -15 -10 -15 -5 0 -10 -13 -10 -30 0
-16 -4 -30 -10 -30 -5 0 -12 -27 -16 -60 -4 -33 -11 -60 -15 -60 -5 0 -9 -29
-9 -65 0 -37 -4 -65 -10 -65 -6 0 -10 -27 -10 -60 0 -33 4 -60 10 -60 6 0 10
-32 10 -75 0 -41 4 -75 9 -75 5 0 12 -31 16 -70 4 -38 11 -70 16 -70 5 0 9
-13 9 -30 0 -16 5 -30 10 -30 6 0 10 -11 10 -25 0 -14 5 -25 10 -25 6 0 10 -9
10 -20 0 -11 4 -20 9 -20 5 0 12 -20 15 -45 4 -25 11 -45 17 -45 5 0 9 -7 9
-15 0 -8 5 -15 10 -15 6 0 10 -9 10 -20 0 -11 5 -20 10 -20 6 0 10 -7 10 -15
0 -8 4 -15 9 -15 5 0 12 -16 15 -35 4 -19 11 -35 16 -35 6 0 10 -9 10 -20 0
-11 5 -20 10 -20 6 0 10 -9 10 -19 0 -11 9 -22 19 -26 13 -4 22 -19 26 -45 4
-26 13 -41 26 -45 10 -4 19 -15 19 -26 0 -10 5 -19 10 -19 6 0 10 -9 10 -19 0
-10 7 -21 15 -25 8 -3 15 -14 15 -23 0 -10 9 -25 20 -33 11 -8 20 -19 20 -24
0 -5 8 -16 18 -25 11 -9 22 -28 25 -43 4 -15 16 -30 27 -33 11 -3 20 -13 20
-21 0 -8 11 -26 25 -40 14 -14 25 -30 25 -37 0 -7 9 -19 20 -27 11 -8 20 -22
20 -32 0 -9 9 -20 20 -23 11 -3 23 -18 27 -33 6 -26 20 -42 62 -72 12 -8 21
-22 21 -32 0 -9 7 -23 15 -30 55 -46 75 -68 75 -79 0 -6 20 -31 45 -55 25 -23
45 -46 45 -51 0 -6 9 -20 19 -32 l20 -23 30 31 c17 18 31 36 31 42 0 6 20 30
45 53 25 24 45 50 45 58 0 7 10 20 21 28 36 25 49 41 49 59 0 9 9 23 21 31 42
30 56 46 62 72 4 15 16 30 27 33 11 3 20 13 20 21 0 8 11 26 25 40 14 14 25
30 25 37 0 7 9 19 20 27 11 8 20 22 20 32 0 9 9 20 20 23 11 3 23 18 27 33 3
15 14 34 25 43 10 9 18 20 18 25 0 5 9 16 20 24 11 8 20 23 20 33 0 9 7 20 15
23 8 4 15 15 15 25 0 10 5 19 10 19 6 0 10 9 10 19 0 11 9 22 19 26 13 4 22
19 26 45 4 26 13 41 26 45 10 4 19 15 19 26 0 10 5 19 10 19 6 0 10 9 10 20 0
11 4 20 10 20 5 0 12 16 16 35 3 19 10 35 15 35 5 0 9 7 9 15 0 8 5 15 10 15
6 0 10 9 10 20 0 11 5 20 10 20 6 0 10 7 10 15 0 8 4 15 9 15 6 0 13 20 17 45
3 25 10 45 15 45 5 0 9 9 9 20 0 11 5 20 10 20 6 0 10 11 10 25 0 14 5 25 10
25 6 0 10 14 10 30 0 17 4 30 9 30 5 0 12 32 16 70 4 39 11 70 16 70 5 0 9 34
9 75 0 43 4 75 10 75 6 0 10 30 10 70 0 40 -4 70 -10 70 -5 0 -10 24 -10 54 0
32 -5 56 -12 58 -6 2 -13 30 -16 61 -2 31 -8 57 -13 57 -5 0 -9 14 -9 30 0 17
-4 30 -10 30 -5 0 -10 7 -10 15 0 8 -4 15 -10 15 -5 0 -10 9 -10 20 0 11 -4
20 -10 20 -5 0 -10 9 -10 20 0 11 -7 23 -15 26 -8 4 -15 14 -15 23 0 9 -9 23
-20 31 -11 8 -20 18 -20 23 0 15 -85 107 -100 107 -5 0 -12 9 -15 20 -3 11
-13 20 -21 20 -9 0 -22 6 -29 13 -32 28 -45 37 -52 37 -5 0 -15 9 -23 20 -8
11 -22 20 -32 20 -10 0 -18 4 -18 10 0 5 -16 12 -35 16 -19 3 -35 10 -35 15 0
5 -11 9 -25 9 -14 0 -25 5 -25 10 0 6 -13 10 -30 10 -16 0 -30 5 -30 10 0 6
-15 10 -34 10 -19 0 -36 5 -38 11 -4 12 -325 21 -440 12z m332 -103 c0 -5 20
-10 45 -10 25 0 45 -4 45 -10 0 -5 14 -10 30 -10 17 0 30 -4 30 -10 0 -5 11
-10 25 -10 14 0 25 -4 25 -9 0 -5 16 -12 35 -15 19 -4 35 -11 35 -16 0 -6 8
-10 18 -10 10 0 24 -9 32 -20 8 -11 20 -20 27 -20 15 0 143 -126 143 -141 0
-6 8 -19 19 -28 10 -9 22 -27 26 -40 l7 -24 -26 24 c-14 13 -36 33 -48 45 -13
12 -30 31 -38 43 -8 11 -22 21 -31 21 -10 0 -24 7 -33 15 -8 8 -19 15 -25 15
-6 0 -11 5 -11 10 0 6 -9 10 -20 10 -11 0 -20 5 -20 10 0 6 -7 10 -15 10 -8 0
-15 4 -15 9 0 6 -20 13 -45 17 -25 3 -45 10 -45 15 0 5 -18 9 -40 9 -22 0 -40
5 -40 10 0 6 -22 10 -50 10 -27 0 -50 5 -50 10 0 6 -47 10 -120 10 -73 0 -120
-4 -120 -10 0 -5 -21 -10 -46 -10 -36 0 -51 -5 -67 -22 -13 -16 -21 -19 -24
-10 -6 15 -40 16 -45 1 -2 -5 -22 -13 -46 -16 -23 -3 -42 -10 -42 -14 0 -5 -7
-9 -15 -9 -8 0 -15 -4 -15 -10 0 -5 -9 -10 -20 -10 -11 0 -20 -4 -20 -10 0 -5
-5 -10 -11 -10 -6 0 -17 -7 -25 -15 -9 -8 -23 -15 -33 -15 -9 0 -23 -10 -31
-21 -8 -12 -25 -31 -38 -43 -12 -12 -34 -32 -48 -45 l-26 -24 7 24 c4 13 16
31 26 40 11 9 19 21 19 27 0 14 116 132 129 132 6 0 21 11 35 25 14 14 32 25
41 25 8 0 15 4 15 10 0 5 16 12 35 16 19 3 35 10 35 15 0 5 11 9 25 9 14 0 25
5 25 10 0 6 14 10 30 10 17 0 30 5 30 10 0 6 20 10 45 10 25 0 45 5 45 10 0 6
50 10 130 10 80 0 130 -4 130 -10z m20 -219 c0 -5 25 -12 55 -16 30 -3 55 -11
55 -16 0 -5 9 -9 20 -9 11 0 20 -4 20 -10 0 -5 7 -10 15 -10 8 0 15 -4 15 -10
0 -5 9 -10 20 -10 11 0 20 -4 20 -9 0 -5 9 -13 21 -16 27 -9 159 -141 159
-159 0 -8 7 -16 15 -20 8 -3 15 -15 15 -26 0 -11 5 -20 10 -20 6 0 10 -9 10
-20 0 -11 5 -20 10 -20 6 0 10 -7 10 -15 0 -8 5 -15 10 -15 6 0 10 -13 10 -29
0 -16 5 -31 10 -33 6 -2 13 -33 17 -71 3 -37 10 -67 14 -67 14 0 10 -40 -3
-41 -10 0 -10 -2 0 -6 13 -5 17 -43 4 -43 -5 0 -12 -44 -15 -97 -4 -54 -11
-99 -17 -101 -5 -2 -10 -15 -10 -28 0 -13 -4 -24 -10 -24 -5 0 -10 -9 -10 -20
0 -11 -4 -20 -10 -20 -5 0 -10 -7 -10 -15 0 -8 -4 -15 -10 -15 -5 0 -13 -12
-16 -27 -7 -27 -39 -63 -56 -63 -4 0 -8 -9 -8 -20 0 -11 -4 -20 -9 -20 -5 0
-13 -9 -16 -20 -3 -11 -15 -20 -25 -20 -19 0 -70 -43 -70 -60 0 -4 -18 -11
-40 -15 -22 -4 -40 -11 -40 -16 0 -5 -7 -9 -15 -9 -8 0 -15 -4 -15 -10 0 -5
-9 -10 -20 -10 -11 0 -20 -4 -20 -10 0 -5 -15 -10 -34 -10 -19 0 -36 -6 -38
-12 -4 -10 -46 -13 -168 -13 -122 0 -164 3 -167 13 -3 6 -20 12 -39 12 -19 0
-34 5 -34 10 0 6 -9 10 -20 10 -11 0 -20 5 -20 10 0 6 -7 10 -15 10 -8 0 -15
4 -15 9 0 5 -18 12 -40 16 -22 4 -40 11 -40 15 0 17 -51 60 -70 60 -13 0 -22
9 -26 28 -7 26 -20 42 -63 72 -12 8 -21 22 -21 31 0 10 -7 24 -15 33 -8 8 -15
19 -15 25 0 6 -4 11 -10 11 -5 0 -10 9 -10 20 0 11 -4 20 -10 20 -5 0 -10 11
-10 24 0 13 -5 26 -10 28 -6 2 -13 50 -17 108 -3 58 -11 108 -17 113 -8 5 -8
9 0 15 6 4 14 47 17 97 3 51 10 91 16 93 6 2 11 17 11 33 0 16 5 29 10 29 6 0
10 7 10 15 0 8 5 15 10 15 6 0 10 9 10 20 0 11 5 20 10 20 6 0 10 9 10 20 0
11 7 23 15 26 8 4 15 12 15 20 0 18 132 150 159 159 12 3 21 11 21 16 0 5 9 9
20 9 11 0 20 5 20 10 0 6 7 10 15 10 8 0 15 5 15 10 0 6 9 10 20 10 11 0 20 4
20 9 0 5 25 13 55 16 30 4 55 11 55 16 0 5 68 9 150 9 83 0 150 -4 150 -9z"/>
<path d="M2260 3671 c0 -4 -27 -11 -60 -14 -85 -7 -93 -19 -98 -133 -4 -92 -5
-94 -29 -94 -42 0 -55 -24 -61 -115 l-5 -85 37 0 36 0 0 63 c0 51 -4 65 -20
77 -30 21 -25 40 10 40 l30 0 0 -324 0 -323 25 -19 c16 -12 25 -29 25 -46 0
-27 2 -28 55 -28 54 0 55 0 55 30 l0 30 240 0 240 0 0 -30 c0 -30 1 -30 55
-30 53 0 55 1 55 28 0 17 9 34 25 46 l25 19 0 323 c0 288 2 324 16 324 8 0 21
-6 29 -13 11 -12 10 -16 -6 -28 -15 -11 -19 -26 -19 -76 l0 -63 36 0 36 0 -3
83 c-4 91 -18 117 -62 117 -24 0 -25 2 -29 94 -5 114 -13 126 -98 133 -33 3
-60 10 -60 14 0 5 -108 9 -240 9 -132 0 -240 -4 -240 -9z m480 -31 c0 -5 9
-10 20 -10 17 0 20 -7 20 -41 0 -69 2 -69 -280 -69 -282 0 -280 0 -280 69 0
34 3 41 20 41 11 0 20 5 20 10 0 6 87 10 240 10 153 0 240 -4 240 -10z m130
-371 c0 -184 -2 -213 -17 -227 -15 -15 -51 -17 -353 -17 -302 0 -338 2 -353
17 -15 14 -17 43 -17 227 l0 211 370 0 370 0 0 -211z m-670 -379 c0 -34 -3
-40 -21 -40 -28 0 -49 23 -49 54 0 23 4 26 35 26 34 0 35 -1 35 -40z m670 14
c0 -31 -21 -54 -49 -54 -18 0 -21 6 -21 40 0 39 1 40 35 40 31 0 35 -3 35 -26z
m-560 -23 c0 -21 -6 -30 -21 -34 -33 -9 -49 3 -49 34 0 26 3 29 35 29 32 0 35
-3 35 -29z m450 0 c0 -31 -16 -43 -49 -34 -39 10 -17 62 27 63 18 0 22 -5 22
-29z m-140 -91 l0 -30 -120 0 -120 0 0 30 0 30 120 0 120 0 0 -30z"/>
<path d="M1810 1250 c0 -6 -47 -10 -120 -10 -73 0 -120 -4 -120 -10 0 -6 -37
-10 -90 -10 -53 0 -90 -4 -90 -10 0 -5 -20 -10 -45 -10 -25 0 -45 -4 -45 -10
0 -5 -11 -10 -25 -10 -16 0 -25 -6 -25 -15 0 -8 9 -15 20 -15 11 0 20 -4 20
-10 0 -5 20 -10 45 -10 25 0 45 -4 45 -10 0 -6 30 -10 69 -10 39 0 71 -5 73
-10 2 -7 134 -13 381 -17 207 -3 377 -10 377 -15 0 -14 138 -10 144 5 5 10 7
10 12 0 3 -8 24 -13 49 -13 25 0 45 5 48 13 4 10 6 10 6 0 1 -15 171 -19 171
-5 0 5 172 12 382 15 252 4 384 10 386 17 2 5 34 10 73 10 39 0 69 4 69 10 0
6 20 10 45 10 25 0 45 5 45 10 0 6 9 10 20 10 11 0 20 7 20 15 0 8 -9 15 -20
15 -11 0 -20 5 -20 10 0 6 -22 10 -50 10 -27 0 -50 5 -50 10 0 6 -35 10 -85
10 -50 0 -85 4 -85 10 0 6 -45 10 -115 10 -70 0 -115 4 -115 10 0 7 -240 10
-700 10 -460 0 -700 -3 -700 -10z"/>
</g>
</svg>
